<mxfile host="Electron" agent="Mozilla/5.0 (Windows NT 10.0; Win64; x64) AppleWebKit/537.36 (KHTML, like Gecko) draw.io/24.7.5 Chrome/126.0.6478.183 Electron/31.3.0 Safari/537.36" version="24.7.5">
  <diagram name="Page-1" id="tP9NK3nI0rLPUmK7wiUO">
    <mxGraphModel dx="750" dy="444" grid="1" gridSize="10" guides="1" tooltips="1" connect="1" arrows="1" fold="1" page="1" pageScale="1" pageWidth="1169" pageHeight="827" math="0" shadow="0">
      <root>
        <mxCell id="0" />
        <mxCell id="1" parent="0" />
        <mxCell id="ItChd2ZiS6qIzLTdCovc-27" value="" style="rounded=1;whiteSpace=wrap;html=1;dashed=1;arcSize=5;" parent="1" vertex="1">
          <mxGeometry x="220" y="175" width="500" height="245" as="geometry" />
        </mxCell>
        <mxCell id="ItChd2ZiS6qIzLTdCovc-25" value="" style="rounded=0;whiteSpace=wrap;html=1;" parent="1" vertex="1">
          <mxGeometry x="240" y="220" width="340" height="180" as="geometry" />
        </mxCell>
        <mxCell id="ItChd2ZiS6qIzLTdCovc-1" value="Start" style="rounded=0;whiteSpace=wrap;html=1;" parent="1" vertex="1">
          <mxGeometry x="520" y="240" width="40" height="20" as="geometry" />
        </mxCell>
        <mxCell id="ItChd2ZiS6qIzLTdCovc-2" value="Done" style="rounded=0;whiteSpace=wrap;html=1;" parent="1" vertex="1">
          <mxGeometry x="480" y="240" width="40" height="20" as="geometry" />
        </mxCell>
        <mxCell id="ItChd2ZiS6qIzLTdCovc-5" value="Reserved" style="rounded=0;whiteSpace=wrap;html=1;" parent="1" vertex="1">
          <mxGeometry x="260" y="240" width="220" height="20" as="geometry" />
        </mxCell>
        <mxCell id="ItChd2ZiS6qIzLTdCovc-7" value="status_register (0x00)" style="text;html=1;align=center;verticalAlign=middle;whiteSpace=wrap;rounded=0;" parent="1" vertex="1">
          <mxGeometry x="580" y="240" width="120" height="20" as="geometry" />
        </mxCell>
        <mxCell id="ItChd2ZiS6qIzLTdCovc-8" value="QP" style="rounded=0;whiteSpace=wrap;html=1;" parent="1" vertex="1">
          <mxGeometry x="260" y="280" width="300" height="20" as="geometry" />
        </mxCell>
        <mxCell id="ItChd2ZiS6qIzLTdCovc-10" value="0" style="text;html=1;align=center;verticalAlign=middle;whiteSpace=wrap;rounded=0;" parent="1" vertex="1">
          <mxGeometry x="530" y="220" width="20" height="20" as="geometry" />
        </mxCell>
        <mxCell id="ItChd2ZiS6qIzLTdCovc-11" value="1" style="text;html=1;align=center;verticalAlign=middle;whiteSpace=wrap;rounded=0;" parent="1" vertex="1">
          <mxGeometry x="490" y="220" width="20" height="20" as="geometry" />
        </mxCell>
        <mxCell id="ItChd2ZiS6qIzLTdCovc-12" value="2" style="text;html=1;align=center;verticalAlign=middle;whiteSpace=wrap;rounded=0;" parent="1" vertex="1">
          <mxGeometry x="450" y="220" width="20" height="20" as="geometry" />
        </mxCell>
        <mxCell id="ItChd2ZiS6qIzLTdCovc-13" value="31" style="text;html=1;align=center;verticalAlign=middle;whiteSpace=wrap;rounded=0;" parent="1" vertex="1">
          <mxGeometry x="270" y="220" width="20" height="20" as="geometry" />
        </mxCell>
        <mxCell id="ItChd2ZiS6qIzLTdCovc-14" value="31" style="text;html=1;align=center;verticalAlign=middle;whiteSpace=wrap;rounded=0;" parent="1" vertex="1">
          <mxGeometry x="270" y="260" width="20" height="20" as="geometry" />
        </mxCell>
        <mxCell id="ItChd2ZiS6qIzLTdCovc-15" value="0" style="text;html=1;align=center;verticalAlign=middle;whiteSpace=wrap;rounded=0;" parent="1" vertex="1">
          <mxGeometry x="530" y="260" width="20" height="20" as="geometry" />
        </mxCell>
        <mxCell id="ItChd2ZiS6qIzLTdCovc-16" value="Width" style="rounded=0;whiteSpace=wrap;html=1;" parent="1" vertex="1">
          <mxGeometry x="260" y="320" width="300" height="20" as="geometry" />
        </mxCell>
        <mxCell id="ItChd2ZiS6qIzLTdCovc-17" value="Height" style="rounded=0;whiteSpace=wrap;html=1;" parent="1" vertex="1">
          <mxGeometry x="260" y="360" width="300" height="20" as="geometry" />
        </mxCell>
        <mxCell id="ItChd2ZiS6qIzLTdCovc-18" value="31" style="text;html=1;align=center;verticalAlign=middle;whiteSpace=wrap;rounded=0;" parent="1" vertex="1">
          <mxGeometry x="270" y="300" width="20" height="20" as="geometry" />
        </mxCell>
        <mxCell id="ItChd2ZiS6qIzLTdCovc-19" value="0" style="text;html=1;align=center;verticalAlign=middle;whiteSpace=wrap;rounded=0;" parent="1" vertex="1">
          <mxGeometry x="530" y="300" width="20" height="20" as="geometry" />
        </mxCell>
        <mxCell id="ItChd2ZiS6qIzLTdCovc-20" value="31" style="text;html=1;align=center;verticalAlign=middle;whiteSpace=wrap;rounded=0;" parent="1" vertex="1">
          <mxGeometry x="270" y="340" width="20" height="20" as="geometry" />
        </mxCell>
        <mxCell id="ItChd2ZiS6qIzLTdCovc-21" value="0" style="text;html=1;align=center;verticalAlign=middle;whiteSpace=wrap;rounded=0;" parent="1" vertex="1">
          <mxGeometry x="530" y="340" width="20" height="20" as="geometry" />
        </mxCell>
        <mxCell id="ItChd2ZiS6qIzLTdCovc-22" value="qp_register (0x01)" style="text;html=1;align=center;verticalAlign=middle;whiteSpace=wrap;rounded=0;" parent="1" vertex="1">
          <mxGeometry x="580" y="280" width="100" height="20" as="geometry" />
        </mxCell>
        <mxCell id="ItChd2ZiS6qIzLTdCovc-23" value="width_register (0x02)" style="text;html=1;align=center;verticalAlign=middle;whiteSpace=wrap;rounded=0;" parent="1" vertex="1">
          <mxGeometry x="580" y="320" width="120" height="20" as="geometry" />
        </mxCell>
        <mxCell id="ItChd2ZiS6qIzLTdCovc-24" value="height_register (0x03)" style="text;html=1;align=center;verticalAlign=middle;whiteSpace=wrap;rounded=0;" parent="1" vertex="1">
          <mxGeometry x="580" y="360" width="120" height="20" as="geometry" />
        </mxCell>
        <mxCell id="ItChd2ZiS6qIzLTdCovc-26" value="&lt;b&gt;&lt;font style=&quot;font-size: 15px;&quot;&gt;H.264 REGISTERS&lt;/font&gt;&lt;/b&gt;" style="text;html=1;align=center;verticalAlign=middle;whiteSpace=wrap;rounded=0;" parent="1" vertex="1">
          <mxGeometry x="240" y="190" width="340" height="30" as="geometry" />
        </mxCell>
      </root>
    </mxGraphModel>
  </diagram>
</mxfile>
